<svg height='300px' width='300px'  fill="#000000" xmlns="http://www.w3.org/2000/svg" xmlns:xlink="http://www.w3.org/1999/xlink" version="1.1" x="0px" y="0px" viewBox="0 0 100 100" enable-background="new 0 0 100 100" xml:space="preserve"><g><circle cx="59.732" cy="41.742" r="2.562"></circle><circle cx="59.732" cy="55.545" r="2.562"></circle><circle cx="59.732" cy="69.349" r="2.562"></circle><circle cx="51.646" cy="48.645" r="2.562"></circle><circle cx="51.646" cy="62.447" r="2.562"></circle><circle cx="51.646" cy="76.251" r="2.562"></circle><circle cx="43.479" cy="41.742" r="2.562"></circle><circle cx="43.479" cy="55.545" r="2.562"></circle><circle cx="43.479" cy="69.349" r="2.562"></circle><circle cx="35.117" cy="34.841" r="2.562"></circle><path d="M70.498,63.447c-0.172-0.301-0.773-1.927-1.258-3.232c-0.419-1.134-0.884-2.389-1.33-3.524   c-2.062-5.242-0.652-9.624,0.05-11.265l2.293-5.368c1.533-3.825,0.708-10.431-0.992-13.967c-1.48-3.082-3.271-10.904-3.289-10.982   c-0.13-0.569-0.636-0.973-1.219-0.973h-4.307c-0.69,0-1.25,0.56-1.25,1.25v9.041c0,5.026-4.088,9.115-9.113,9.115   c-5.026,0-9.115-4.089-9.115-9.115v-9.041c0-0.69-0.56-1.25-1.25-1.25h-4.305c-0.603,0-1.119,0.43-1.229,1.022   c-0.012,0.065-1.244,6.636-3.283,10.938c-2.199,4.643-2.578,9.991-0.979,13.987l2.283,5.342c0.701,1.641,2.11,6.023,0.049,11.266   c-0.449,1.143-0.918,2.407-1.34,3.547c-0.479,1.297-1.076,2.909-1.246,3.207c-2.239,3.754-2.166,8.315-2.162,8.508   c0.015,0.634,0.501,1.157,1.133,1.217c0.083,0.008,8.321,0.828,12.093,4.599c3.676,3.676,4.816,8.814,4.827,8.866   c0.124,0.575,0.634,0.988,1.223,0.988h6.603c0.553,0,1.04-0.363,1.198-0.894c0.018-0.059,1.796-5.915,5.966-9.373   c4.803-3.982,9.722-4.185,10.658-4.185l0.142,0.002c0.342,0.021,0.667-0.104,0.913-0.333c0.247-0.23,0.391-0.55,0.398-0.888   C72.663,71.761,72.736,67.199,70.498,63.447z M58.952,75.433c-3.755,3.113-5.752,7.752-6.463,9.69h-4.745   c-0.545-1.848-2.029-5.906-5.245-9.122c-3.511-3.51-9.827-4.78-12.448-5.17c0.11-1.411,0.487-3.966,1.764-6.104   c0.174-0.291,0.417-0.884,0.783-1.85c0.206,1.209,1.251,2.132,2.52,2.132c1.414,0,2.562-1.147,2.562-2.562   s-1.148-2.562-2.562-2.562c-0.621,0-1.183,0.229-1.626,0.597c0.354-0.954,0.725-1.949,1.089-2.875   c0.928-2.359,1.246-4.57,1.244-6.511c1.068-0.309,1.855-1.283,1.855-2.451c0-1.415-1.148-2.562-2.562-2.562   c-0.009,0-0.017,0.006-0.025,0.006c-0.202-0.676-0.413-1.236-0.588-1.645l-2.272-5.315c-1.338-3.344-0.982-7.927,0.929-11.961   c0.55-1.16,1.039-2.452,1.467-3.74c0.076,0.05,0.16,0.083,0.254,0.092c1.408,0.132,2.659-0.903,2.791-2.312   c0.11-1.183-0.607-2.245-1.674-2.636c0.186-0.767,0.332-1.433,0.438-1.936h2.031v7.791c0,6.166,4.834,11.211,10.908,11.579   c0.426,0.826,1.276,1.397,2.27,1.397c1.262,0,2.304-0.915,2.517-2.115c2.433-0.917,4.474-2.624,5.815-4.812   c1.298-0.126,2.317-1.207,2.317-2.538c0-0.701-0.283-1.336-0.739-1.798c0.083-0.562,0.141-1.13,0.141-1.714v-7.791h2.066   c0.544,2.265,1.957,7.857,3.244,10.538c0.636,1.321,1.13,3.202,1.38,5.153c-0.158-0.03-0.32-0.049-0.487-0.049   c-1.415,0-2.562,1.147-2.562,2.562c0,1.414,1.147,2.562,2.562,2.562c0.17,0,0.336-0.019,0.496-0.05   c-0.102,0.643-0.247,1.237-0.452,1.748l-2.282,5.341c-0.823,1.925-2.479,7.059-0.077,13.163c0.335,0.854,0.676,1.765,1.005,2.65   c-0.747,0.448-1.252,1.258-1.252,2.191c0,1.415,1.147,2.562,2.562,2.562c0.183,0,0.341-0.088,0.477-0.236   c1.224,2.077,1.609,4.534,1.729,5.953C67.94,70.919,63.368,71.771,58.952,75.433z"></path></g></svg>