<svg height='300px' width='300px'  fill="#000000" xmlns="http://www.w3.org/2000/svg" xmlns:xlink="http://www.w3.org/1999/xlink" xml:space="preserve" version="1.1" style="shape-rendering:geometricPrecision;text-rendering:geometricPrecision;image-rendering:optimizeQuality;" viewBox="0 0 60000 60000" x="0px" y="0px" fill-rule="evenodd" clip-rule="evenodd"><defs><style type="text/css">
   
    .fil0 {fill:#000000;fill-rule:nonzero}
   
  </style></defs><g><path class="fil0" d="M35801.4 20620.56c29.56,-42.11 66.36,-77.18 107.86,-104.28 156.88,-169.71 242.77,-357.44 234.84,-566.61 -7.76,-220.05 164.33,-404.74 384.38,-412.5 220.05,-7.76 404.74,164.33 412.5,384.38 17.6,464.51 -166.55,845.99 -485.38,1164.92 -539.99,1022.64 -2201.89,1602.42 -3621.99,2097.71 -785.43,273.94 -1489.53,519.52 -1784.07,757.91 -1290.91,1044.82 -2260.96,2004.57 -2857.9,3296.45 -600.43,1299.45 -840.02,2962.72 -672.93,5423.26 5.18,77.78 -12.29,151.82 -46.74,215.73 19.9,135.54 40.42,271.31 61.58,407.29 200.18,1286.56 459.26,2607.42 773.19,3944.23 840.16,3577.57 2064.95,7202.04 3596.45,10517.95 23.91,51.19 47.74,102.51 71.49,153.92 370.57,795.08 758.74,1572.06 1163.57,2325.86 1922.11,3579.04 4213.73,6631.79 6756.37,8623.61 173.45,135.48 204.23,385.92 68.75,559.37 -135.48,173.45 -385.92,204.23 -559.37,68.75 -2636.24,-2065.15 -4998.55,-5204.82 -6968.87,-8873.61 -460.4,-857.28 -899.57,-1743.81 -1316.08,-2652.43 -607.13,-1286.35 -1272.64,-2510.06 -1968.24,-3684.92 -141.35,-238.73 -283.71,-475.08 -426.89,-709.23 -1600.77,-2374.44 -3029.67,-3691.99 -4532.92,-4420.89 -1504.09,-729.3 -3113.15,-881.93 -5057.67,-921.08 -402.8,-8.1 -891.01,59.97 -1410.44,132.4 -1224.94,170.8 -2611.16,363.95 -3865.19,-263.18 -673.16,-278.49 -1198.83,-844.93 -1823,-1714.77 -128.57,-178.63 -88,-427.68 90.63,-556.25 178.63,-128.57 427.68,-88 556.25,90.63 580.9,809.55 1040.75,1304.9 1605.17,1488.18 572.08,185.78 1314.5,77.52 2469.17,-317.98 704.5,-241.31 1309.25,-462.27 1853.08,-660.95 4388.53,-1603.35 5102.96,-1864.37 8841.15,3698.81 498.48,741.85 997.1,1498.88 1486.57,2274.95 -546.23,-1646.72 -1018.18,-3317.51 -1408.1,-4977.88 -314.21,-1337.98 -576.42,-2678.67 -782.57,-4003.61 -171.19,-1100.27 -301.87,-2178.99 -389.67,-3225.41 -181.4,-704.39 -386.15,-1342.73 -610.6,-1925.38 -464.4,-1064.62 -1106.15,-1829.85 -1778.36,-2377.95 -1010.21,-823.68 -2092.29,-1163.57 -2746.03,-1291.56 -404.72,-79.24 -891.87,-96.13 -1410.19,-114.1 -1243.09,-43.1 -2650.74,-91.93 -3781.94,-939.07 -35.65,-26.74 -65.54,-58.3 -89.45,-93.11 -550.97,-358.09 -943.92,-964.23 -1393.23,-1896.25 -95.78,-198.48 -12.54,-437.04 185.94,-532.82 198.48,-95.78 437.04,-12.54 532.82,185.94 430.31,892.6 776.07,1420.57 1253.68,1656.18 487.16,240.33 1178.3,219.68 2300.81,15.42 451.39,-82.13 849.27,-184.17 1218.72,-278.91 424.8,-108.94 814.61,-208.89 1212.29,-264.42 -109.04,-92.53 -218.22,-184.7 -327.4,-276.86 -874.22,-737.92 -1748.47,-1475.88 -2574.72,-2406.72 -102.1,-115.02 -172.18,-190.77 -232.31,-255.76 -100.92,-109.08 -179.28,-193.78 -238.21,-269.22 -246.95,-316.14 -372.21,-551.52 -405.9,-722.83 -56.19,-285.73 47.07,-473.66 274.01,-582.32 132.36,-63.4 291.38,-71.08 467.92,-36.4 328.13,64.46 823.9,295.65 1274.87,533.89 708.58,374.36 1333.88,674.32 1948.67,890.14 375.57,131.84 750.53,233.44 1142.91,302.96 -52.01,-297.02 -163.52,-593.53 -323.66,-865.32 -206.18,-349.91 -492.12,-655.32 -834.29,-863.89 -1089.69,-664.27 -2749.46,-744.71 -4201.54,-815.07 -1146.22,-55.53 -2172.14,-105.26 -2819.7,-432.17 -1502.23,-758.37 -2606.21,-2305.58 -3106.27,-3933.55 -209.3,-681.4 -314.07,-1379.97 -299.19,-2043.71 15.24,-679.95 155.38,-1324.63 436.14,-1880.78 386.59,-765.8 1031.07,-1360.06 1971.89,-1649.05 174.72,-53.66 345.9,-88.25 513.67,-105.42 -116.12,-737.25 -89.11,-1445.79 133.02,-2085.63 248.19,-714.85 731.94,-1330.77 1519.34,-1789.93 297.15,-173.27 584.35,-195.14 877.25,-217.42 215.1,-16.36 434.69,-33.08 602.15,-133.85 245.86,-147.94 413.27,-342.23 548.78,-499.48 207.42,-240.71 367.2,-426.13 670.82,-463.48 274.27,-33.75 562,-46.66 982.5,100.41 349,122.06 786.76,360.33 1387.55,808.34 561.42,-533.29 1050.26,-831.74 1552.95,-989.35 514.37,-161.28 1017.9,-168.48 1615.3,-125.62 1204.13,86.43 2001.61,686.78 2542.22,1559.03 950.45,-111.33 1718.48,-13.12 2330.86,350.79 557.2,-407.53 969.91,-629.06 1302.16,-745.26 420.49,-147.06 708.23,-134.15 982.5,-100.4 303.62,37.35 463.38,222.75 670.8,463.47 135.51,157.27 302.92,351.55 548.79,499.49 167.47,100.77 387.05,117.49 602.15,133.85 292.89,22.28 580.11,44.15 877.25,217.42 816.44,476.1 1306.59,927.76 1574.69,1503.01 235.24,504.75 284.8,1072.85 221.32,1808.65 167.62,77.88 325.02,174.07 476.11,298.4 353.88,291.19 645.98,717.48 915.58,1398.99 21.86,55.25 42.87,110.73 63.22,166.38 460.41,-26.49 910.66,58.29 1320.89,232.02 458.66,194.24 867.69,499.71 1184.94,884.88 318.36,386.54 545.17,854.17 638.15,1371.38 100.22,557.38 44.72,1168.75 -219.72,1793.16 -1232.6,2910.38 -4763.28,5211.17 -7674.95,7108.56 -1389.83,905.68 -2633.26,1716.03 -3369.99,2424.04 460.03,-171.33 993.18,-342.15 1608.45,-539.25l164.21 -52.62c425.57,-136.47 974.17,-260.31 1570.59,-394.93 1350.56,-304.84 2969.85,-670.49 3663.79,-1277.67zm-22634.31 -11504.74c44.76,-129.98 186.42,-199.06 316.4,-154.3 129.98,44.76 199.06,186.42 154.3,316.4 -160.13,461.24 -258.79,900.52 -268.94,1305.36 -9.73,387.96 62.59,745.05 241.97,1059.95 67.95,119.73 25.98,271.9 -93.75,339.85 -119.73,67.95 -271.9,25.98 -339.85,-93.75 -226.75,-398.05 -318.35,-841.43 -306.41,-1317.77 11.52,-459.48 120.17,-948.48 296.28,-1455.74zm1571.21 -2147.53c456.74,109.54 885.98,346.27 1290.49,672.97 759.95,-429.57 1443.03,-563.22 2121.14,-338.23 192.83,63.98 381.84,157.05 568.76,280.64 -45.41,-318.56 -59.3,-639.49 -42.73,-959.97 61.98,-1198.33 551.8,-2383.73 1412.35,-3407.09 -487.61,-357.78 -833.2,-546.66 -1099.22,-639.69 -259.24,-90.67 -444.77,-81.71 -623.12,-59.77 -0.58,0.07 -71.28,83.33 -164.58,191.6 -172.28,199.93 -385.1,446.92 -742.52,661.98 -330.81,199.06 -644.67,222.96 -952.15,246.35 -200.92,15.29 -397.94,30.29 -536.63,111.16 -609.03,355.15 -979.9,822.03 -1166.22,1358.69 -192.93,555.72 -196.47,1198.96 -65.57,1881.36zm14569.86 -3010.28c400.4,468.83 680.69,1122.71 854.89,1993.05 70.83,353.94 135.21,713.02 191.43,1078.93 27.15,176.73 52.46,357.14 75.72,541.66 563.72,-171.92 1159.5,-83.05 1818.88,227.43 678.42,-683.83 1473.54,-1048.78 2428,-839.86 30.19,-507.24 -11.95,-898.47 -163.27,-1223.15 -193.09,-414.3 -583.08,-761.16 -1249.69,-1149.89 -138.69,-80.87 -335.72,-95.87 -536.63,-111.16 -307.47,-23.39 -621.32,-47.29 -952.15,-246.35 -357.42,-215.06 -570.26,-462.06 -742.53,-661.99 -93.29,-108.27 -163.98,-191.52 -164.56,-191.59 -178.35,-21.94 -363.88,-30.91 -623.12,59.76 -235.52,82.36 -533.39,239.86 -936.97,523.16zm5618.72 3894.66c-14.91,-4.03 -29.44,-8.9 -43.54,-14.52 -112.43,-36.42 -233.34,-67.55 -363.57,-96.97 -742.55,-167.71 -1377.42,214.38 -1930.17,867.63 -613.19,724.67 -1128.53,1776.32 -1580.14,2823.88 -87.15,202.79 -322.21,296.53 -525,209.38 -202.79,-87.15 -296.53,-322.21 -209.38,-525 411.6,-954.74 878.32,-1918.47 1435.54,-2680.34 -458.15,-179.99 -854.33,-202.96 -1206.24,-42.57 -50.27,22.91 -100.21,49.5 -149.88,79.8 -25.34,21.6 -53.49,40.12 -83.92,54.94 -372.84,260.86 -731.26,736.6 -1096.68,1456.21 -896.83,1766.07 -1653.06,3655.44 -2093.24,5920.38 -431.26,2218.99 -560.93,4803.79 -225.7,7993.53 259.68,-756.59 564.9,-1455.7 946.85,-2128.7 495.82,-873.62 1118.59,-1698.81 1936.04,-2543.26 563.71,-582.35 1267.16,-1164.45 2035.98,-1735.26 759.85,-564.14 1584.27,-1117.65 2399.82,-1649.29 1083.08,-706.02 1794.09,-1734.08 2129.39,-2877.73 353.5,-1205.7 289.8,-2541.06 -194.98,-3766.41 -216.8,-548.05 -431.86,-874.53 -678.08,-1077.13 -145.29,-119.55 -311.55,-202.77 -503.1,-268.57zm2224.46 2011.83c257.82,1109.73 229.56,2260.28 -82.68,3325.28 -386.59,1318.57 -1208.11,2505.01 -2460.63,3321.49 -803.13,523.54 -1614.22,1068.04 -2359.2,1621.15 -735.98,546.43 -1406.72,1100.92 -1939.1,1650.9 -715,738.62 -1269.95,1458.83 -1716.23,2211.96 798.62,-679.54 1913.11,-1405.85 3136.47,-2203.05 2819.4,-1837.27 6238.22,-4065.15 7374.95,-6749.18 200.58,-473.63 243.83,-930.97 169.72,-1343.16 -67.93,-377.85 -234.79,-720.9 -469.39,-1005.74 -235.72,-286.19 -539.06,-512.92 -878.7,-656.76 -243.77,-103.23 -506.08,-163.76 -775.21,-172.89zm-13753.41 9735.1c43.21,4.2 85.96,9.36 128.23,15.45 960.61,138.48 1762.04,758.44 2352.34,1685.96 -2.54,-90.41 -4.63,-180.29 -6.36,-269.68 -69.64,-74 -111.19,-174.48 -108.18,-284.08 30.39,-1007.32 -47.55,-1927.46 -285.02,-2839.07 -237.56,-911.91 -636.44,-1821.85 -1248.14,-2809.69 -422,-681.53 -1011.94,-1415.12 -1685.3,-2164.07 -683.71,-760.44 -1444.67,-1527.28 -2202.64,-2270.06 -45.42,-44.51 -89.29,-88.73 -131.54,-132.58 -319.74,-331.83 -587.58,-680.83 -805.62,-1041.88 -537.46,-809.95 -1021.41,-1269.91 -1505.77,-1430.61 -382,-126.74 -792.58,-63.91 -1259.39,160.72 583.5,633.31 1107.35,1433.03 1583.37,2247.74 111.31,190.7 46.95,435.56 -143.75,546.87 -190.7,111.31 -435.56,46.95 -546.87,-143.75 -555.72,-951.11 -1172.93,-1873.69 -1855.88,-2480.29 -621.01,-551.57 -1299.89,-836.49 -2038.97,-609.48 -714.06,219.34 -1202.13,668.23 -1493.77,1245.93 -226.12,447.92 -339.17,975.17 -351.76,1537.02 -12.95,578.06 79.77,1191.29 264.81,1793.71 442.01,1438.98 1403.75,2799.46 2703.15,3455.43 496.86,250.83 1441.93,296.63 2497.82,347.79 1547.62,74.99 3316.57,160.72 4579.66,930.69 455.78,277.82 834.76,681.43 1106.17,1142.03 248.75,422.17 407.84,895.31 453.41,1365.9zm2677.68 -2483.37c61.34,-468.36 135.28,-921.38 220.67,-1360.74 456.79,-2350.37 1238.62,-4305.25 2165.12,-6129.76 383.82,-755.84 782.27,-1296.06 1213.76,-1644.8 -30.51,-272.32 -67.93,-549.93 -111.3,-832.18 -53.32,-347.02 -115.68,-694.08 -185.19,-1041.43 -190.58,-952.13 -508.54,-1568.92 -979.23,-1910.03 -408.29,-295.89 -957.9,-401.45 -1663.16,-354.48 418.48,1021.75 599.6,2248.49 723,3407.72 23.3,219.19 -135.5,415.77 -354.69,439.07 -219.19,23.3 -415.77,-135.5 -439.07,-354.69 -126.94,-1192.42 -314.65,-2452.41 -764.65,-3413.93 -416.24,-889.36 -1071.74,-1529.56 -2149.74,-1606.93 -506.84,-36.37 -925.28,-33.01 -1321.54,91.24 -396.18,124.21 -795.71,375.99 -1276.8,839.59 -45.94,44.27 -90.4,88.33 -133.32,132.13 -946.9,966.27 -1486.48,2124.36 -1546.63,3287.31 -59.62,1152.87 354.45,2319.06 1313.48,3314.34 38.43,39.88 77.09,78.88 115.92,116.94 774.24,758.72 1549.09,1539.3 2237.02,2304.44 698.25,776.63 1315.9,1546.87 1769.66,2279.69 524.51,847.04 903.95,1644.58 1166.69,2436.5zm3445.88 -4179.7c83.7,-203.65 316.66,-300.89 520.31,-217.19 203.65,83.7 300.89,316.66 217.19,520.31l-71.07 173.06c-162.76,396.83 -209.26,510.16 -389.23,858.11 -100.96,195.88 -341.62,272.84 -537.5,171.88 -195.88,-100.96 -272.84,-341.62 -171.88,-537.5 167.97,-324.75 210.89,-429.35 361.11,-795.61l71.07 -173.06zm-5814.98 11781.52c-503.43,-610.3 -1036.03,-1138.13 -1580.98,-1631 -641.75,-45.61 -1217.24,101.96 -1890.1,274.51 -364.12,93.37 -754.8,193.57 -1201.1,277.72 271.21,17.73 540.56,27.08 801.87,36.14 558.59,19.36 1083.58,37.57 1538.31,126.6 573.11,112.2 1438.76,369.27 2332,916.03zm-2267.45 -3279.03c1709.72,1443.16 3419.43,2886.41 4678.77,5632.63 26.5,-203.91 46.83,-407.87 61.16,-611.23l0.1 0.01c109.37,-1555.14 -138.07,-3030.02 -658.2,-4147.81 -491.56,-1056.42 -1221.21,-1779.22 -2107.23,-1906.95 -48.22,-6.95 -96.53,-12.16 -144.89,-15.56l-1.57 0c-749.63,-52.85 -1419.19,-201.65 -2091.93,-437.81 -662.99,-232.74 -1320.37,-547.27 -2058.05,-937 -161.04,-85.07 -326.38,-168.69 -482.02,-241.09l65.59 71.09c76.13,82.29 164.84,178.17 244.81,268.26 781.41,880.32 1637.44,1602.9 2493.46,2325.46zm-3531.69 16078.58c438.73,-59.15 854.27,-105.92 1241.58,-98.13 2049.28,41.26 3753.66,206.29 5388.93,999.2 446.46,216.48 885.49,478.92 1322.38,797.3 -2617.43,-3644.3 -3477.01,-3331.13 -6979.38,-2051.54 -306.29,111.9 -631.24,230.63 -973.51,353.17zm12639.05 -14194.27c173.21,-140.19 412.98,-269.38 697.71,-394.73 -157.63,41.09 -303.24,82.21 -433.35,123.94l-164.21 52.62c-3014.24,965.58 -3757.46,1204.52 -3617.19,5008.9 117.83,-434.13 263.87,-834.65 437.26,-1209.9 660.56,-1429.56 1701.37,-2465.19 3079.78,-3580.83z"></path></g></svg>