<svg height='300px' width='300px'  fill="#000000" xmlns="http://www.w3.org/2000/svg" xmlns:xlink="http://www.w3.org/1999/xlink" version="1.1" x="0px" y="0px" viewBox="0 0 100 100" style="enable-background:new 0 0 100 100;" xml:space="preserve"><path d="M11.0214844,70.0581055c0.2558594,0,0.5117188-0.0976562,0.7070312-0.2929688l2.9780884-2.9796753l3.5706787,3.5727539  l-3.0028687,3.0045776c-0.390625,0.390625-0.390625,1.0239258,0,1.4145508  c0.1953125,0.1948242,0.4511719,0.2924805,0.7070312,0.2924805s0.5117188-0.0976562,0.7070312-0.2929688l3.0025024-3.0041504  l3.507019,3.5090942l-3.0026855,3.0043335c-0.390625,0.390625-0.390625,1.0239258,0,1.4145508  c0.1953125,0.1948242,0.4511719,0.2924805,0.7070312,0.2924805s0.5117188-0.0976562,0.7070312-0.2929688l3.0022583-3.0039673  l3.5063477,3.5084229l-3.0027466,3.0048218c-0.390625,0.390625-0.390625,1.0239258,0,1.4145508  c0.1953125,0.1948242,0.4511719,0.2924805,0.7070312,0.2924805s0.5117188-0.0976562,0.7070312-0.2929688l3.0023193-3.0043945  l3.6810913,3.6831665l-2.9783325,2.9799194c-0.390625,0.390625-0.390625,1.0239258,0,1.4145508  c0.1953125,0.1948242,0.4511719,0.2924805,0.7070312,0.2924805s0.5117188-0.0976562,0.7070312-0.2929688l18.3573608-18.3669434  l18.3565063,18.3464355c0.1953125,0.1948242,0.4511719,0.2924805,0.7070312,0.2924805s0.5117188-0.0976562,0.7070312-0.2929688  c0.390625-0.390625,0.390625-1.0239258,0-1.4145508l-2.9796753-2.9780884l3.5719604-3.5699463l3.0043945,3.0026245  c0.1953125,0.1948242,0.4511719,0.2924805,0.7070312,0.2924805s0.5117188-0.0976562,0.7070312-0.2929688  c0.390625-0.390625,0.390625-1.0239258,0-1.4145508l-3.003418-3.00177l3.5085449-3.5065308l3.0046387,3.0029297  c0.1953125,0.1948242,0.4511719,0.2924805,0.7070312,0.2924805s0.5117188-0.0976562,0.7070312-0.2929688  c0.390625-0.390625,0.390625-1.0239258,0-1.4145508l-3.0036621-3.0020142l3.5080566-3.5061035l3.0043945,3.0027466  c0.1953125,0.1948242,0.4511719,0.2924805,0.7070312,0.2924805s0.5117188-0.0976562,0.7070312-0.2929688  c0.390625-0.390625,0.390625-1.0239258,0-1.4145508l-3.003418-3.0018311l3.6826172-3.680542l2.9799805,2.9782715  c0.390625,0.3896484,1.0234375,0.3901367,1.4140625-0.0004883s0.390625-1.0239258,0-1.4145508L71.3398438,49.9833984  l8.2919922-8.2963867c5.9335938-5.9370117,5.9335938-15.5961914,0-21.5332031l-9.8659668-9.8713379  c-0.1811523-0.1811523-0.4311523-0.2932129-0.7072754-0.2932129c0,0,0,0-0.0009766,0l-38.1279297,0.0214844  c-0.0178833,0-0.0327759,0.0093384-0.050415,0.0102539c-0.1126709,0.0058594-0.2250366,0.0233765-0.3309326,0.0670776  c-0.1043091,0.0432739-0.194458,0.1097412-0.2774048,0.1837769c-0.0145874,0.0129395-0.0333252,0.0174561-0.0473022,0.0313721  l-9.8603516,9.8554688c-2.8779297,2.8769531-4.4628906,6.7026367-4.4628906,10.7719727  c0,4.0698242,1.5849609,7.8955078,4.4628906,10.7724609l8.296814,8.2922974L10.3144531,68.3510742  c-0.390625,0.390625-0.390625,1.0239258,0,1.4145508C10.5097656,69.9604492,10.765625,70.0581055,11.0214844,70.0581055z   M78.2177734,40.2729492l-8.2922363,8.296814L51.4086304,30.0631714l17.6499634-17.6593628l9.1591797,9.1640625  C83.3720703,26.7246094,83.3720703,35.1162109,78.2177734,40.2729492z M33.3447876,12.0093994l33.2993164-0.0187988  L49.9941406,28.6494751L33.3447876,12.0093994z M17.9003906,30.9306641c0-3.5351562,1.3769531-6.8579102,3.8769531-9.3569336  l9.1533203-9.1489258L83.8980713,65.362915L65.3817139,83.8685303L21.7773438,40.2880859  C19.2773438,37.7890625,17.9003906,34.4663086,17.9003906,30.9306641z M48.5913086,69.9156494l-13.9649048,13.972229  L16.1202393,65.3709717L30.074585,51.4090576L48.5913086,69.9156494z"></path></svg>