<svg height='300px' width='300px'  fill="#000000" xmlns="http://www.w3.org/2000/svg" xmlns:xlink="http://www.w3.org/1999/xlink" version="1.1" x="0px" y="0px" viewBox="0 0 1000 1000" style="enable-background:new 0 0 1000 1000;" xml:space="preserve"><path d="M815.3,881.3c-2.6-2.9-5.3-5.7-7.9-8.6c-5.3-5.7-10.5-11.5-15.8-17.2c-10.3-11.2-20.6-22.4-31-33.6  c-19.3-20.7-39.3-40.8-58-62c-28.7-32.5-59.6-63-90.2-93.6c-17.2-17.2-34.4-34.3-51.6-51.5c-14.9-14.9-30.6-29.5-44.4-45.5  c-17.9-20.8-37.7-40.1-56.7-59.9c-21.6-22.4-43.1-44.9-64.6-67.4c-23.8-24.9-47.8-49.5-70.6-75.2c-0.1-0.1-0.3-0.3-0.4-0.4  c1.4,0.8,3,1.4,4.7,1.8c4.7,0.9,10.5,0,15.3,0.3c5.5,0.2,10.9,0.7,16.3,1.3c10.5,1.2,20.8,3,31.1,5.5c21.8,5.2,42.4,13.7,63.5,20.8  c16.5,5.6,35.4,10.4,51.9,2.2c18.3-9.1,27.4-29.7,33.9-48c7.1-20,11.8-40.9,16.1-61.7c6.1-29.8,11.6-60.4,7.6-90.9  c-2.7-20.9-10.2-41.5-24.8-57c-13.1-13.9-31.5-23.3-49.9-27.9c-0.1,0-0.1,0-0.2,0c-0.1,0-0.2-0.1-0.3-0.1c-34.2-8-70.8,0-102.2,14.5  c-15.6,7.2-30.5,16.4-43.2,28.1c-11.4,10.5-22.4,24.5-23,40.7c-0.3,7.8,2.2,15.3,6.9,21.5c2.4,3.1,5.4,5.6,7.9,8.6  c10.5,12.8,3.6,27.9-6.9,38.2c-11.7,11.4-28.3,19.1-44.7,19.7c-8.1,0.3-15.8-0.8-21.4-6.9c-4.2-4.5-7.1-9.9-9.2-15.7  c-5.9-16.9-4.9-35.7-2.7-53.1c2.1-16.1,6.3-31.7,10.4-47.4c0.3-1.2-8.8-4.9-8.9-4.6c-10.8,28-20.7,58.3-18.2,88.7  c1.1,13.1,5.3,26.6,14.3,36.4c7.7,8.3,18.9,14.2,29.7,17.2c29.4,8.1,66.4-7.4,82-33.4c7.8-13.1,8.4-28.8,0.3-41.8  c-4.5-7.2-13.3-12.8-12.2-22.2c1.7-15.1,18-27.5,29.7-35.3c13.6-9.2,28.9-16.1,44.5-21.1c16.7-5.3,34.4-8.3,52-7.3  c8.8,0.5,18.3,1.9,26.4,5.7c7.7,3.6,14.2,10.7,18.8,17.8c17.4,27,14,63.8,8.7,93.9c-4.9,27.5-10.2,55.3-19.3,81.7  c-4.2,12.2-10.5,32.3-24.4,36.5c-8.5,2.6-18.3-0.5-26.4-3c-8.4-2.6-16.8-5.6-25.1-8.5c-34-11.7-68.7-19.5-104.8-19.2  c-9,0.1-17.9,0.6-26.9,1.6c-0.5,0.1,0.1,0.4,0.3,0.6c3.5,2.8,7.4,5.6,10.6,8.9c-4.6-3.9-9.3-7.8-14-11.6c-6.2-5.1-12.6-10-19.2-14.7  c-3.5-2.5-7.1-5-10.6-7.5c-2.9-2-5.7-4.3-9-5.3c-0.6-0.2-1.2-0.2-1.8-0.3c-7.8-1-18.1,0.2-21.6,8.2c-2.5,5.7-0.1,10.2,2.9,15  c4,6.4,8.4,12.5,13,18.6c0.1,0.1,0.2,0.2,0.3,0.2c-9.4,3-18.5,6.7-27.3,11.1c-21.4,10.6-40.8,27.5-43.5,52.6  c-2.9,26.6,11.8,52.2,26.9,72.9c16.1,21.9,35.5,41.3,55.9,59.2c19,16.7,38.9,32.3,59.8,46.4c1.3,0.9,5.1-1.8,7.5-3.1  c0.6-0.2,1.2-0.5,1.8-0.7c-32.1-26.6-62.9-55.8-89-88.4c-15.1-18.9-30.3-40.2-36.6-63.9c-2.5-9.4-3.5-19.7-0.8-29.2  c3.3-11.5,12.1-20.2,22.1-26.3c10.7-6.5,23.7-10.4,36.8-13c6.3,6.7,13.4,12.2,20.1,18.6c9.4,9,18.9,18,28.3,26.9  c18.9,17.9,37.7,35.9,56.6,53.8c18.7,17.8,37.4,35.6,56.1,53.4c17.6,16.8,35.7,33.2,53,50.4c35.1,34.7,70.9,68.8,105.9,103.6  c17.3,17.3,35,34,53.1,50.5c15.3,13.9,30.4,28,44.4,43.3c8.2,9,17.5,17,26.3,25.3c10.6,9.9,21.1,19.8,31.6,29.8  c21.5,20.3,42.9,40.6,64.6,60.7c1.2,1.1,8.9,0.5,10-0.6c0.6-0.6,3.7-3,3.7-3.7C819.3,884.9,815.8,881.9,815.3,881.3z M309.5,348.2  c0,0.1,8.2-0.4,8.6-0.5c18.8-1.5,37.8-0.9,56.5,1.6c19.5,2.6,38.6,7.6,57.3,13.8c16.5,5.4,33.5,13.6,50.9,15.3  c6.9,0.7,13.1-0.7,18.2-5.6c5.8-5.6,9.4-13.3,12.5-20.6c7.3-17.1,11.7-35.5,15.7-53.6c5.8-26.3,12-53.5,11.8-80.6  c-0.1-16.7-2.4-33.9-10.4-48.8c-7-13-18.4-21.8-31.5-28.1c-30.6-14.6-67-8.9-97.5,3.1c-15.7,6.1-31,14.3-43.8,25.3  c-10.2,8.7-25.9,25.3-14.8,39c6.1,7.5,11.9,13.6,13.8,23.7c3.3,17.2-6.4,33.2-19.1,44c-13.4,11.4-30.9,18.7-48.4,19.7  c-9.3,0.5-20.6-0.3-28.1-6.5c-3.9-3.2-7.1-7.1-9.7-11.4c-4.8-7.8-7.3-16.6-8.3-25.8c3,10.9,8.7,20.7,18.3,26.9  c13.8,9,29.2,11.6,45.1,7.3c15.7-4.3,32-14.3,39.9-29c6.2-11.5,3-22.1-5.6-30.8c-30.2-30.4,8-67,33.9-83.4  c35.4-22.3,81.3-35.6,122.8-26c9.2,2.3,17.7,5.8,25.2,11.7c6.4,5,11.9,11.1,16.4,17.8c9.5,14,14.4,30.6,16.5,47.2  c3.2,25.5-0.3,50.9-5,76c-2.9,15.8-6.3,31.5-10.3,47.1c-4.4,17.2-9.5,34.6-17.9,50.3c-7.3,13.7-18.3,26.2-34.1,29.6  c-17.6,3.8-35.6-3.3-51.8-9.2c-18.3-6.6-36.5-13.2-55.5-17.6c-18.3-4.3-36.9-6.4-55.7-6.6c-1.5-2.1-3-4.2-4.9-6.1  c-2-1.9-4.1-3.7-6.1-5.4C314,351.9,309.4,348.4,309.5,348.2z M196.8,419.2c-5.3,24.7,9.7,50.6,23,70.3c5.4,8.1,11.3,15.8,17.4,23.4  c-1.3-1.5-2.7-2.9-4-4.4c-29.2-33-65.7-89.1-24.9-127.8c13.2-12.5,30.2-19.7,47.7-24.3c2.1-0.2,4.2-0.6,4.9-0.8  c2.5-0.8,5.1-1.5,7.6-2.1c1.2-0.2,2.4-0.5,3.6-0.7c6,4.8,12.4,9.4,18.3,14.4c-14.8,2.2-29.7,5.4-43.7,10.4  C226.5,384.7,201.8,396,196.8,419.2z M293.4,369.6c0.5-0.1,2.8-1,5-2c2,1.7,3.7,3.9,5.5,6.2c3.8,5,7.2,10.3,10.1,15.8  c-5.8-5.4-11.6-10.9-17.6-16.1c-1.4-1.2-3.1-2.7-4.8-3.7C292.2,369.7,292.8,369.6,293.4,369.6z M273.2,350.3  c-0.9-1.9-1.7-3.8-2.5-5.7c1.9,1.6,3.8,3.3,5.6,5C275.3,349.8,274.2,350.1,273.2,350.3z M756,833.3c-9.8-9.3-19.6-18.5-29.4-27.7  c-9.8-9.2-20.4-18-29.6-27.8c-13.5-14.2-27.1-28.1-41.6-41.4c-18.4-16.8-36.8-33.5-54.4-51.2c-36.1-36.2-73.8-70.8-109.6-107.3  c-17.4-17.7-36.1-34.4-54.1-51.5c-19.4-18.5-38.8-37-58.2-55.4c-21.9-20.9-43.8-41.7-65.7-62.6c-9.8-9.3-19.2-19.5-29.9-27.7  c-1.6-1.2-2.9-2.2-4.2-3.7c-0.9-0.9-3.2-2.8-3.6-4c-0.5-1.4-1-0.9-0.3-1.2c2.3-0.4,4.5-0.7,6.8-1c7.6,5.2,14,12.3,20.8,18.5  c6.1,5.6,12.3,11.2,18.7,16.5c1.2,1,10-0.6,10-0.6c-4.4-11.1-10-21.9-17.2-31.5c-1.9-2.5-4.8-6.1-6.8-7.6c-2-1.4-4-2.8-5.9-4.3  c-4.6-3.6-9.3-7.2-13.5-11.3c-6.6-6.5-14.4-12.2-21.6-18.2c-1.1-0.9-10,0.4-10,0.6c1.1,3.5,2.3,7,3.6,10.4c0.6,1.6,1.3,3.2,1.9,4.7  c0,0.1,2.3,4.3,2.3,4.1c0,0,0,0,0,0.1c-1.3,0.4-2.7,0.7-4,1.1c-5.2-6.8-11.1-14.1-14.5-21.8c-1.3-2.9-1.5-6-0.5-9  c0.5-1.6,1.4-3.2,2.5-4.4c1-1.2,3.4-2.1,3.4-2.6c6.2,2.5,12.4,8.2,17.7,12c6,4.4,11.9,8.9,17.7,13.5c4.4,3.6,8.8,7.3,13.2,10.9  c4,3.3,8.9,6.6,11.5,11.1c3,5.2,8.9,10.7,13.2,15.5c5,5.6,10.2,11,15.3,16.5c10.5,11,21,22,31.6,33.1c21.5,22.5,43,45,64.6,67.5  c10.8,11.2,21.6,22.4,32.4,33.6c9.8,10.2,20.2,20,29.5,30.6c6.3,7.1,12.4,14.4,19,21.2c7.8,7.9,15.6,15.8,23.5,23.7  c16.9,17,34,33.9,51,50.8c31.6,31.5,63.5,63,93.6,96c2.9,3.2,5.9,6.4,8.9,9.7c-0.4,0-0.9-0.1-1.3-0.1c-0.3,0,1.1,0.6,2.2,1  c16.1,17.5,32.4,34.8,48.7,52.2c11.6,12.3,23,24.7,34.4,37.2c4.5,4.9,8.9,9.8,13.4,14.6C779.4,855.4,767.7,844.4,756,833.3z"></path></svg>